<?xml version="1.0" encoding="UTF-8" standalone="no"?>
<!-- Created with Inkscape (http://www.inkscape.org/) -->

<svg
   xmlns:dc="http://purl.org/dc/elements/1.1/"
   xmlns:cc="http://creativecommons.org/ns#"
   xmlns:rdf="http://www.w3.org/1999/02/22-rdf-syntax-ns#"
   xmlns:svg="http://www.w3.org/2000/svg"
   xmlns="http://www.w3.org/2000/svg"
   xmlns:sodipodi="http://sodipodi.sourceforge.net/DTD/sodipodi-0.dtd"
   xmlns:inkscape="http://www.inkscape.org/namespaces/inkscape"
   width="336.77423mm"
   height="338.06076mm"
   viewBox="0 0 336.77423 338.06076"
   version="1.1"
   id="svg16159"
   inkscape:version="0.91+devel r"
   sodipodi:docname="planet-remix.svg">
  <defs
     id="defs16153">
    <clipPath
       clipPathUnits="userSpaceOnUse"
       id="clipPath16045">
      <circle
         r="2207.2869"
         cy="3462.8694"
         cx="-19371.848"
         style="fill:#b20604;fill-opacity:0.98823529;stroke:none;stroke-width:4.04476595"
         id="circle16047" />
    </clipPath>
    <pattern
       patternUnits="userSpaceOnUse"
       width="945.98046"
       height="981.07139"
       patternTransform="translate(-1741.6207,-219.77012)"
       id="pattern6421-617">
      <path
         sodipodi:nodetypes="aaaaaaaaaaaaaaaaaaaaaaaaaaaaaaaaa"
         inkscape:connector-curvature="0"
         id="path10433"
         d="m 489.64072,165.03149 c 22.4754,9.15136 45.7816,-21.53498 70,-20 32.5737,2.06454 88.0316,5.99181 90,38.57143 1.66,27.47438 -44.1941,37.44371 -71.4286,41.42857 -34.3989,5.03313 -68.7631,-12.38671 -101.4285,-24.28571 -20.0097,-7.28891 -42.5616,-13.0504 -57.1429,-28.57143 -11.6878,-12.44104 -21.1629,-30.11257 -20,-47.14286 1.964,-28.761232 22.3462,-55.584792 44.2857,-74.285712 34.3211,-29.25486 80.7207,-46.9400301 125.7143,-50.00000015 51.3914,-3.49507995 109.985,4.70699005 150,37.14286015 39.87285,32.32063 64.88384,87.294102 67.14286,138.571432 1.12102,25.44595 -12.33251,50.70645 -27.14286,71.42857 -19.0733,26.68661 -44.6448,52.33814 -75.7143,62.85715 -22.5701,7.64141 -47.8415,0.52644 -71.4286,-2.85715 -15.5479,-2.23036 -30.2032,-8.95495 -45.7142,-11.42857 -26.401,-4.2103 -53.2824,-4.76129 -80,-5.71428 -31.4086,-1.12031 -62.8572,0 -94.2858,0 -22.8571,0 -47.1915,8.08384 -68.5714,0 -20.1965,-7.63639 -32.8346,-28.07319 -48.5714,-42.85715 -14.7245,-13.83299 -30.1397,-27.15906 -42.8572,-42.85714 -28.601,-35.30417 -87.898,-70.9371 -74.2857,-114.285722 9.8552,-31.38409 59.5709,-45.33883 91.4286,-37.14285 43.9351,11.30311 51.9462,75.419622 85.7143,105.714282 26.1528,23.46269 57.6409,40.47647 88.5714,57.14286 31.157,16.78841 62.937,33.77073 97.1429,42.85714 44.4211,11.79994 92.5216,25.30485 137.1428,14.28571 16.6686,-4.11628 32.9668,-14.53696 42.8572,-28.57142 11.31,-16.049 20.1026,-38.39049 14.2857,-57.14286 -9.7947,-31.57585 -43.7502,-53.04333 -74.2857,-65.71429 -28.2038,-11.70341 -61.2554,-10.40533 -91.4286,-5.71428 -18.1752,2.82572 -34.4015,13.04288 -51.4286,20 -6.7143,2.7434 -17.6952,1.69426 -20,8.57143 -2.44,7.28035 4.3172,17.10441 11.4286,19.99999 z"
         style="fill:#ea412a;fill-opacity:1;stroke:none" />
      <path
         sodipodi:nodetypes="aaaaaaaaa"
         inkscape:connector-curvature="0"
         id="path10435"
         d="m 503.92642,352.16581 c -15.5772,0.95406 -30.9976,7.76086 -46.4691,5.71365 -13.8098,-1.82734 -31.6495,-3.7126 -38.7243,-15.71252 -4.3842,-7.43627 -3.4337,-20.06722 3.098,-25.71138 14.0688,-12.15716 37.2169,0.0974 55.7629,1.42841 20.2249,1.45149 41.2243,0.57972 60.4099,7.14204 13.1119,4.48484 38.4505,7.85934 35.6263,21.42617 -2.9718,14.27594 -28.8205,4.75931 -43.3712,5.71363 -8.7587,0.57444 -17.5714,-0.53659 -26.3325,0 z"
         style="fill:#ea412a;fill-opacity:1;stroke:none" />
      <path
         sodipodi:nodetypes="aaaaaaa"
         inkscape:connector-curvature="0"
         id="path10437"
         d="m 742.46791,299.31463 c 14.81923,16.00089 44.21513,-12.40837 58.86087,-28.56821 16.01935,-17.67545 32.84842,-44.68537 24.78353,-67.13529 -3.83819,-10.68423 -18.68508,-20.80451 -29.43043,-17.14091 -15.568,5.30788 -12.02173,30.62851 -18.58765,45.70912 -4.40148,10.10931 -8.83183,20.22573 -13.94073,29.99662 -6.64237,12.7037 -31.42648,26.62106 -21.68559,37.13867 z"
         style="fill:#ea412a;fill-opacity:1;stroke:none" />
      <path
         sodipodi:nodetypes="aaaaaaaaaaaaaaaaaaaaa"
         inkscape:connector-curvature="0"
         id="path10439"
         d="m 123.75042,98.429188 c 43.5746,-24.27743 55.9813,82.636822 86.2004,122.322402 24.6384,32.35666 43.5833,71.75495 77.4485,94.27508 33.2079,22.08306 75.8374,25.00575 114.6238,34.28184 52.0511,12.44847 104.4912,29.84449 157.995,28.56822 29.6641,-0.7076 58.3343,-11.42804 86.7424,-19.99775 28.5151,-8.60196 55.7118,-21.08706 83.6444,-31.42503 34.37449,-12.72215 71.44452,-19.54683 103.30966,-37.65959 27.90467,-15.86155 53.28141,-84.83852 74.62053,-60.86141 25.0792,28.17953 -51.73451,55.27887 -81.2213,78.80719 -27.16955,21.67933 -62.73132,32.38026 -87.41509,56.85248 -14.6028,14.4776 -15.9608,41.69493 -34.0774,51.42278 -20.9251,11.2359 -47.9134,-4.40293 -71.2526,0 -35.9582,6.78349 -66.0636,34.44193 -102.2321,39.99549 -55.2454,8.48276 -114.5333,7.03529 -167.2888,-11.42728 -23.7018,-8.29479 -39.2792,-32.07211 -61.9588,-42.85231 -17.0894,-8.12303 -40.0697,-3.59678 -54.5176,-15.81518 -27.9885,-23.66949 -39.2292,-63.40649 -47.7493,-99.05775 -4.1758,-17.47315 4.5695,-36.83023 -1.0776,-53.88481 -8.4703,-25.581 -33.7579,-42.31438 -46.9394,-65.81718 -12.0038,-21.40287 -50.2914,-55.78384 -28.8547,-67.727192 z"
         style="fill:#f11212;fill-opacity:1;stroke:none" />
      <path
         sodipodi:nodetypes="aaaaaaaaaaaaaaaaaaaaaaaaaaaaaaaaaaaaaaaaaaa"
         inkscape:connector-curvature="0"
         id="path10441"
         d="m 935.35501,360.74579 c -21.36966,-36.40014 -76.48548,35.84866 -115.71429,51.42857 -52.06862,20.6793 -108.2569,31.07226 -158.5714,55.71428 -15.7769,7.72691 -27.585,23.12145 -44.2857,28.57143 -31.2885,10.21043 -67.5331,-5.23293 -98.5715,5.71429 -15.4524,5.45007 -42.6816,12.40697 -40,28.57143 3.2545,19.61819 37.2905,15.98231 57.1429,17.14285 24.6189,1.43919 51.1979,-1.06557 72.8571,-12.85714 7.9903,-4.35001 22.5514,-11.8191 18.5715,-20 -10.0339,-20.62521 -63.844,28.1582 -68.5715,5.71429 -3.0108,-14.29385 27.071,-11.59512 41.4286,-14.28572 12.1781,-2.28218 27.0211,-8.57448 37.1429,-1.42857 6.521,4.60379 9.8844,15.36031 7.1428,22.85714 -4.2649,11.66217 -19.8853,15.42321 -31.4286,20 -18.9262,7.50402 -39.698,9.89792 -60,11.42857 -25.1846,1.89877 -51.4505,4.153 -75.7142,-2.85714 -10.0437,-2.90179 -20.7457,-7.44551 -27.1429,-15.71428 -5.4435,-7.03606 -10.4679,-17.46308 -7.1429,-25.71429 4.5482,-11.28656 20.4837,-13.25336 31.4286,-18.57143 8.272,-4.01931 27.7557,-1.03265 25.7143,-10 -2.7563,-12.10778 -24.9763,5.34085 -37.1429,2.85714 -13.1469,-2.68383 -22.4178,-16.76849 -35.7142,-18.57142 -29.4306,-3.99066 -57.6065,15.45905 -87.1429,18.57142 -14.207,1.49705 -29.5432,5.17889 -42.8571,0 -21.6735,-8.43064 -36.4006,-29.39529 -51.4286,-47.14285 -14.6806,-17.33727 -23.1981,-39.20844 -37.1429,-57.14286 -5.1713,-6.65078 -13.0164,-11.22651 -17.1428,-18.57143 -15.2819,-27.20168 -9.4142,-63.39592 -25.7143,-90 -9.8573,-16.08858 -22.6014,-37.32757 -41.4286,-38.57143 -22.1495,-1.46336 -54.683596,16.37717 -54.285696,38.57143 0.3882,21.65664 39.240996,20.13172 54.285696,35.71429 8.9058,9.22418 16.3486,20.56623 20,32.85714 8.8187,29.6848 -9.8744,64.62839 2.8572,92.85714 8.8642,19.65394 29.981,31.23485 47.1428,44.28572 22.6221,17.20323 52.1229,24.84862 72.8572,44.28571 12.722,11.9261 15.0065,33.95342 30,42.85714 44.0846,26.17912 101.6524,14.52049 152.8571,17.14286 50.8879,2.60614 101.9191,-0.12967 152.8571,-1.42857 22.8696,-0.58316 46.8561,4.33987 68.5715,-2.85714 24.0715,-7.97786 42.6168,-27.57933 62.8571,-42.85715 41.55832,-31.36905 82.24247,-64.14642 120.00001,-100 18.8155,-17.86671 33.59015,-39.76397 52.85715,-57.14285 8.83993,-7.97364 34.59854,-11.16225 28.57143,-21.42857 z"
         style="fill:#ea412a;fill-opacity:1;stroke:none" />
      <path
         sodipodi:nodetypes="aaaaa"
         inkscape:connector-curvature="0"
         id="path10443"
         d="m 258.21212,428.60293 c 11.5735,-10.05144 20.0818,24.14806 33.5715,31.42857 13.3654,7.21345 46.3024,-4.33902 44.2857,10.71428 -2.1823,16.28993 -34.8147,6.36339 -49.2857,-1.42857 -14.598,-7.86035 -41.0893,-29.84271 -28.5715,-40.71428 z"
         style="fill:#ea412a;fill-opacity:1;stroke:none" />
      <path
         sodipodi:nodetypes="aaaaaaaaaaaaaaaaaaaa"
         inkscape:connector-curvature="0"
         id="path10445"
         d="m 398.11782,628.66513 c 40.4283,-0.4948 78.1488,-21.65552 118.1879,-27.27412 32.0546,-4.49816 76.1712,-29.84895 96.9746,-5.05076 2.8872,3.44168 0.075,9.88605 -3.0304,13.13198 -13.0462,13.63528 -36.6508,9.16876 -54.5483,15.15229 -28.8206,9.63537 -55.3533,26.03794 -84.8528,33.33504 -29.5989,7.32169 -60.4563,8.66909 -90.9137,10.10152 -20.1836,0.94925 -40.6257,1.97905 -60.6092,-1.01015 -22.8715,-3.42119 -45.4076,-10.09814 -66.6701,-19.1929 -30.1063,-12.87759 -61.8398,-26.20318 -84.8528,-49.49747 -18.2278,-18.45058 -25.6653,-45.07789 -38.3858,-67.68022 -14.5646,-25.87915 -26.142,-53.64136 -43.436496,-77.78175 -24.2981,-33.91619 -99.5572,-54.28486 -83.8427002,-92.93403 7.8795002,-19.37927 43.7433002,-13.03799 62.6295002,-4.04061 23.1108,11.00996 32.3497,40.06862 44.446696,62.62945 11.0811,20.66627 11.6119,46.58678 25.2538,65.65992 17.1051,23.91504 43.4803,39.86892 67.6802,56.56854 28.291,19.52277 59.1482,35.1576 89.9036,50.50763 21.7192,10.84004 43.5395,21.93195 66.6701,29.29442 12.7739,4.06594 25.9915,8.24528 39.3959,8.08122 z"
         style="fill:#f11212;fill-opacity:1;stroke:none" />
      <path
         sodipodi:nodetypes="aaaaaaaaa"
         inkscape:connector-curvature="0"
         id="path10447"
         d="m 19.310624,489.26408 c -1.3197,-8.93817 3.3029,-22.27927 12.1218,-24.24366 25.9727,-5.78534 43.4756,31.02649 62.6295,49.49747 14.958796,14.42544 31.695596,28.60957 40.406096,47.47717 4.4318,9.59952 13.9818,25.65532 5.0508,31.31473 -12.0703,7.64874 -25.5621,-13.83758 -35.3554,-24.24366 -9.419096,-10.00846 -11.369596,-25.76408 -21.213196,-35.35534 -12.7431,-12.4164 -32.4575,-15.29639 -46.467,-26.26396 -6.5644,-5.13905 -15.9549,-9.93543 -17.1726,-18.18275 z"
         style="fill:#f11212;fill-opacity:1;stroke:none" />
      <path
         sodipodi:nodetypes="aaaaaaaaaaaaaaaaaaaaaaaaaaaaaa"
         inkscape:connector-curvature="0"
         id="path10449"
         d="m 102.14312,592.29964 c 25.2026,-13.11807 47.1568,32.06866 72.731,44.44671 42.9588,20.79227 87.8414,38.78765 134.3503,49.49748 32.9766,7.5937 67.1916,11.14541 101.0152,10.10152 14.6625,-0.45253 29.2605,-3.2988 43.4366,-7.07106 38.9224,-10.35722 75.3273,-28.54677 113.1371,-42.42641 34.5945,-12.69933 67.9193,-30.10038 104.0457,-37.37565 12.5608,-2.52954 26.421,2.56395 38.3858,-2.0203 88.09613,-33.75352 134.48614,-217.1707 220.21326,-177.78685 10.10175,4.64084 5.93199,23.36717 1.01015,33.33503 -11.74978,23.79603 -44.14197,29.62247 -64.64976,46.46702 -44.18152,36.28952 -78.10038,84.85116 -125.25895,117.1777 -17.8872,12.26142 -43.4084,12.79721 -58.5888,28.28427 -6.2227,6.34843 -13.7414,15.75191 -11.1117,24.24366 2.3232,7.50207 12.4322,10.98534 20.2031,12.12183 16.1615,2.3636 32.1216,-6.55526 47.4771,-12.12183 23.50438,-8.52063 45.21844,-21.34653 67.68025,-32.32488 6.08805,-2.97557 13.04396,-13.50852 18.18274,-9.09137 9.1249,7.84351 -3.85032,24.75053 -11.11168,34.34518 -14.65292,19.36133 -37.69473,32.37501 -60.60915,40.4061 -25.83496,9.05469 -54.45286,7.65557 -81.82236,7.07107 -36.6614,-0.78293 -72.6085,-10.49554 -109.0965,-14.14213 -23.8473,-2.38329 -47.7667,-5.81162 -71.7208,-5.05077 -17.6583,0.56088 -35.4685,2.47668 -52.5279,7.07107 -20.4084,5.49634 -37.9973,19.47917 -58.5889,24.24366 -21.0362,4.86737 -43.0722,4.82971 -64.6497,4.04061 -14.9427,-0.54646 -30.2674,-1.31461 -44.4468,-6.06091 -54.8943,-18.37482 -112.0326,-42.52619 -151.5228,-84.85282 -9.1449,-9.8018 -14.649,-23.19975 -17.1726,-36.36549 -1.0162,-5.30148 -3.778096,-13.67016 1.0101,-16.16244 z"
         style="fill:#ea412a;fill-opacity:1;stroke:none" />
      <path
         sodipodi:nodetypes="aaaaaaaaaaaaaaaaa"
         inkscape:connector-curvature="0"
         id="path10451"
         d="m 741.56972,654.9291 c -4.9234,-9.35084 8.65882,-19.83275 16.16242,-27.27412 23.7838,-23.58657 62.25542,-27.79278 86.87312,-50.50763 10.84629,-10.00792 15.37087,-25.40521 25.25382,-36.36549 14.87022,-16.49122 28.60329,-39.79183 50.50762,-43.43656 8.94344,-1.48812 23.37867,1.23116 25.25382,10.10153 4.18602,19.80188 -29.25562,28.06882 -42.42641,43.43656 -9.8603,11.50505 -22.19618,22.08941 -27.27412,36.36549 -2.82333,7.9375 0.0247,16.89295 -1.01015,25.25381 -1.81712,14.68056 -3.9086,29.58161 -9.09137,43.43656 -4.5949,12.28342 -9.09058,25.98226 -19.1929,34.34519 -7.38195,6.11094 -18.78557,13.53897 -27.27412,9.09137 -7.45644,-3.90682 -6.70753,-15.83358 -7.07107,-24.24366 -0.44488,-10.29197 4.28618,-20.15703 6.06092,-30.30458 1.17317,-6.70787 8.7614,-16.52499 3.03045,-20.20305 -16.58423,-10.64356 -30.43368,27.33551 -49.49747,32.32488 -9.79407,2.5633 -25.58795,6.93781 -30.30456,-2.0203 z"
         style="fill:#f11212;fill-opacity:1;stroke:none" />
      <path
         sodipodi:nodetypes="aaaaaaaa"
         inkscape:connector-curvature="0"
         id="path10453"
         d="m 471.85902,759.98496 c -14.8193,-6.24533 -44.9315,-0.0894 -45.4569,-16.16244 -0.6948,-21.25521 37.3733,-23.78116 58.5888,-25.25381 27.8703,-1.93458 53.4425,16.61975 80.8122,22.22335 36.622,7.49792 109.6797,-22.20179 111.1168,15.15229 1.3507,35.10899 -68.5248,15.62955 -103.0355,22.22336 -16.0943,3.07506 -32.275,10.45628 -48.4874,8.08122 -19.6678,-2.88127 -35.2205,-18.54439 -53.538,-26.26397 z"
         style="fill:#ea412a;fill-opacity:1;stroke:none" />
      <path
         sodipodi:nodetypes="aaaaaaaaaaaa"
         inkscape:connector-curvature="0"
         id="path10455"
         d="m 310.23452,775.13725 c 7.791,-28.6381 59.435,-8.66143 88.8935,-5.05076 45.139,5.5326 85.1053,35.43543 130.3096,40.4061 36.94,4.06193 74.1968,-4.8508 111.1168,-9.09137 18.2612,-2.09745 47.7155,-25.14527 54.5483,-8.08122 5.2091,13.00911 -21.0196,19.90775 -34.3452,24.24366 -22.0957,7.18954 -46.4667,0.69837 -69.7005,1.01015 -27.2738,0.36599 -54.6769,3.67705 -81.8224,1.01015 -24.3176,-2.38907 -47.6285,-11.07644 -71.7208,-15.15228 -15.7306,-2.66125 -31.7087,-3.63431 -47.4772,-6.06092 -20.6282,-3.17447 -42.262,-3.30808 -61.6193,-11.11168 -6.756,-2.72358 -20.095,-5.09297 -18.1828,-12.12183 z"
         style="fill:#f11212;fill-opacity:1;stroke:none" />
      <path
         sodipodi:nodetypes="aaaaaaaaaaaaaaaaaaa"
         inkscape:connector-curvature="0"
         id="path10457"
         d="m 31.432424,625.63467 c 30.8431,-25.59847 70.002096,39.53392 102.025396,63.63962 28.9541,21.79536 51.3845,51.57935 80.8122,72.73098 24.4858,17.59956 50.7717,33.30372 78.7919,44.44671 48.0357,19.10269 99.3868,29.72924 150.5128,37.37564 37.351,5.58622 76.1285,13.58856 113.1371,6.06092 50.321,-10.2354 93.0689,-43.53736 138.3909,-67.68022 37.4143,-19.93045 74.84181,-40.11417 110.10659,-63.63961 43.36261,-28.92757 79.84,-122.24869 124.24877,-94.95434 25.09386,15.4231 1.79283,63.52398 -16.16244,86.87312 -22.95336,29.84868 -68.7566,30.85249 -102.02541,48.48732 -27.60398,14.63207 -51.95186,35.51234 -80.81221,47.47717 -38.2498,15.8575 -81.4447,16.75753 -120.2081,31.31473 -40.8818,15.35276 -73.7495,54.00368 -117.1777,58.58885 -29.4007,3.10415 -57.717,-13.17696 -85.863,-22.22336 -60.4844,-19.44024 -123.3124,-35.99771 -177.7869,-68.69037 -33.5704,-20.14714 -55.9493,-55.61583 -88.8934,-76.7716 -25.8636,-16.60891 -62.735596,-16.04124 -83.842596,-38.38579 -15.887,-16.81855 -43.0568,-49.87413 -25.2539,-64.64977 z"
         style="fill:#ea412a;fill-opacity:1;stroke:none" />
      <path
         sodipodi:nodetypes="aaaaaaaaaaa"
         inkscape:connector-curvature="0"
         id="path10459"
         d="m 478.93002,910.49769 c -1.958,-24.89023 49.7724,-6.1426 73.7412,-13.13198 27.9741,-8.15732 55.591,-18.74113 80.8122,-33.33503 16.2059,-9.37733 26.5711,-28.77469 44.4467,-34.34519 29.9399,-9.33005 62.8541,9.1561 93.94416,5.05076 19.31833,-2.55092 41.42398,-31.5963 55.55839,-18.18274 9.36119,8.88377 -0.56694,28.67824 -10.10153,37.37564 -23.23001,21.19029 -62.31867,8.9957 -92.93402,16.16244 -33.507,7.84365 -65.324,22.18753 -98.995,29.29442 -30.8937,6.52069 -62.4168,10.4004 -93.9441,12.12184 -17.4865,0.95479 -51.1546,16.44848 -52.528,-1.01016 z"
         style="fill:#d60707;fill-opacity:1;stroke:none" />
      <path
         sodipodi:nodetypes="aaaaaaaaaaaaaaaaaaa"
         inkscape:connector-curvature="0"
         id="path10461"
         d="m 95.072024,774.1271 c 25.416396,-27.99488 67.227696,34.68747 100.005196,53.53808 29.4865,16.95797 53.4083,47.4441 86.8731,53.53809 12.1491,2.21236 24.0175,-6.92939 36.3655,-7.07107 14.0042,-0.16068 28.4026,1.89511 41.4162,7.07107 15.7934,6.28157 27.4978,20.15866 42.4264,28.28427 9.6696,5.26315 19.6972,10.18501 30.3046,13.13198 41.5701,11.54906 86.0864,26.13672 128.2894,17.1726 15.0828,-3.20366 24.5595,-20.04432 39.3959,-24.24366 20.7353,-5.86898 43.5284,4.27619 64.6498,0 32.2409,-6.52743 58.0592,-36.7525 90.91372,-38.3858 29.57165,-1.4701 88.34476,-3.13757 84.85281,26.26396 -3.74053,31.49451 -64.34971,-2.26088 -94.95434,6.06092 -40.39609,10.98421 -72.02669,44.54895 -112.12689,56.56854 -39.2877,11.77607 -81.2198,13.44546 -122.2285,14.14214 -58.0986,0.98701 -118.6438,4.30085 -173.7462,-14.14214 -49.5183,-16.57397 -90.7672,-52.23112 -132.33,-83.84266 -34.3437,-26.12088 -67.7884,-54.19439 -95.9645,-86.87312 -5.5495,-6.43629 -19.854696,-14.92117 -14.142196,-21.2132 z"
         style="fill:#d70707;fill-opacity:1;stroke:none" />
      <path
         style="fill:#f11313;fill-opacity:1;stroke:none"
         d="m 638.42982,261.36187 c 9.4375,10.19008 28.1581,-7.90218 37.4852,-18.19348 10.2018,-11.2565 20.9193,-28.4576 15.7832,-42.75468 -2.4443,-6.80417 -11.8994,-13.24921 -18.7425,-10.91608 -9.9144,3.38027 -7.656,19.50556 -11.8375,29.10956 -2.803,6.43804 -5.6244,12.88063 -8.878,19.10315 -4.2302,8.09028 -20.0138,16.95344 -13.8104,23.65153 z"
         id="path10463"
         inkscape:connector-curvature="0"
         sodipodi:nodetypes="aaaaaaa" />
    </pattern>
    <clipPath
       clipPathUnits="userSpaceOnUse"
       id="clipPath6443">
      <circle
         r="545.71429"
         cy="-176.20924"
         cx="-1754.2858"
         transform="matrix(0.80699009,0,0,0.80699009,160.47606,431.70416)"
         id="path6445"
         style="fill:#840000;fill-opacity:1;stroke:#2b0000;stroke-width:4;stroke-miterlimit:4;stroke-dasharray:none;stroke-dashoffset:0" />
    </clipPath>
    <filter
       inkscape:collect="always"
       style="color-interpolation-filters:sRGB"
       id="filter15967"
       x="-0.4752"
       width="1.9504"
       y="-0.4752"
       height="1.9504">
      <feGaussianBlur
         inkscape:collect="always"
         stdDeviation="337.959"
         id="feGaussianBlur15969" />
    </filter>
  </defs>
  <sodipodi:namedview
     id="base"
     pagecolor="#ffffff"
     bordercolor="#666666"
     borderopacity="1.0"
     inkscape:pageopacity="0.0"
     inkscape:pageshadow="2"
     inkscape:zoom="0.24748737"
     inkscape:cx="503.50074"
     inkscape:cy="1091.5052"
     inkscape:document-units="mm"
     inkscape:current-layer="layer1"
     showgrid="false"
     fit-margin-top="0"
     fit-margin-left="0"
     fit-margin-right="0"
     fit-margin-bottom="0"
     inkscape:window-width="2495"
     inkscape:window-height="1416"
     inkscape:window-x="1985"
     inkscape:window-y="24"
     inkscape:window-maximized="1" />
  <metadata
     id="metadata16156">
    <rdf:RDF>
      <cc:Work
         rdf:about="">
        <dc:format>image/svg+xml</dc:format>
        <dc:type
           rdf:resource="http://purl.org/dc/dcmitype/StillImage" />
        <dc:title></dc:title>
      </cc:Work>
    </rdf:RDF>
  </metadata>
  <g
     inkscape:label="Layer 1"
     inkscape:groupmode="layer"
     id="layer1"
     transform="translate(51.214558,48.923243)">
    <g
       id="g16043"
       transform="matrix(0.07694269,0,0,0.07694269,1609.1421,-145.53114)"
       clip-path="url(#clipPath16045)">
      <circle
         id="path6447"
         style="fill:#b20604;fill-opacity:0.98823529;stroke:none;stroke-width:3.96702123"
         cx="-19405.715"
         cy="3418.0508"
         r="2164.8604" />
      <circle
         style="fill:#8b0000;fill-opacity:0.98823529;stroke:none;stroke-width:3.88719726"
         id="path6744"
         cx="-19405.715"
         cy="3418.0508"
         r="2121.2991" />
      <circle
         style="fill:#e40000;fill-opacity:1;stroke:none;stroke-width:3.86667609"
         id="path6375"
         cx="-19405.715"
         cy="3418.0505"
         r="2110.1006" />
      <rect
         style="fill:url(#pattern6421-617);stroke:none"
         width="945.98047"
         height="981.07141"
         x="-1741.6207"
         y="-219.77013"
         id="rect6439"
         clip-path="url(#clipPath6443)"
         transform="matrix(4.7914791,0,0,4.7914791,-13391.377,2030.8933)" />
      <g
         id="g6470"
         transform="matrix(2.8075379,-1.0827185,1.4904335,3.3533687,-18902.172,2269.9497)"
         style="stroke:#b50000;stroke-width:4.32846594">
        <circle
           style="fill:#d00c0c;fill-opacity:1;stroke:#b50000;stroke-width:3.35663533"
           id="path6451"
           transform="matrix(1.2895253,0,0,1.2895253,531.33216,9.0409071)"
           cx="-1045.7142"
           cy="235.21933"
           r="102.85714" />
        <circle
           transform="matrix(1.0833333,0,0,1.0833333,315.71428,57.541246)"
           id="path6449"
           style="fill:#d50d0d;fill-opacity:1;stroke:#b50000;stroke-width:3.99550724"
           cx="-1045.7142"
           cy="235.21933"
           r="102.85714" />
        <path
           id="path6453"
           d="m -817.15625,200.9375 c -61.5403,0 -111.40625,49.8972 -111.40625,111.4375 0,5.48818 0.38983,10.88053 1.15625,16.15625 8.00855,-42.51627 54.31155,-75.125 110.25,-75.125 55.9254,0 102.2567,32.59202 110.28125,75.09375 0.7634,-5.26562 1.15625,-10.64782 1.15625,-16.125 0,-61.5403 -49.8972,-111.4375 -111.4375,-111.4375 z"
           style="fill:#b40c0c;fill-opacity:1;stroke:#b50000;stroke-width:4.32846594"
           inkscape:connector-curvature="0" />
        <path
           id="path6458"
           d="m -902.625,383.84375 c 20.44024,24.41921 51.13285,39.9375 85.46875,39.9375 34.3359,0 65.05976,-15.51829 85.5,-39.9375 -22.41243,18.49979 -52.47553,29.8125 -85.5,29.8125 -33.02447,0 -63.05632,-11.31271 -85.46875,-29.8125 z"
           style="fill:#c40707;fill-opacity:1;stroke:#b50000;stroke-width:4.32846594"
           inkscape:connector-curvature="0" />
        <path
           id="path6465"
           d="m -817.15625,180.71875 c -72.69814,0 -131.625,58.95811 -131.625,131.65625 0,72.69814 58.92686,131.625 131.625,131.625 23.39364,0 45.36835,-6.1125 64.40625,-16.8125 -16.24429,6.75733 -34.21906,10.53125 -53.125,10.53125 -72.58564,0 -131.4375,-55.34749 -131.4375,-123.59375 0,-68.24626 58.85186,-123.5625 131.4375,-123.5625 27.21962,0 52.49272,7.76981 73.46875,21.09375 -22.89849,-19.28623 -52.46833,-30.9375 -84.75,-30.9375 z"
           style="opacity:0.67880004;fill:#d15b5b;fill-opacity:1;stroke:#b50000;stroke-width:4.32846594"
           inkscape:connector-curvature="0" />
      </g>
      <g
         style="stroke:#b50000;stroke-width:4.32846594"
         transform="matrix(-0.73777671,1.5210462,-2.0718949,-0.72838657,-19883.003,6708.3702)"
         id="g6477">
        <circle
           transform="matrix(1.2895253,0,0,1.2895253,531.33216,9.0409071)"
           id="path6479"
           style="fill:#d00c0c;fill-opacity:1;stroke:#b50000;stroke-width:3.35663533"
           cx="-1045.7142"
           cy="235.21933"
           r="102.85714" />
        <circle
           style="fill:#d50d0d;fill-opacity:1;stroke:#b50000;stroke-width:3.99550724"
           id="path6481"
           transform="matrix(1.0833333,0,0,1.0833333,315.71428,57.541246)"
           cx="-1045.7142"
           cy="235.21933"
           r="102.85714" />
        <path
           inkscape:connector-curvature="0"
           style="fill:#b40c0c;fill-opacity:1;stroke:#b50000;stroke-width:4.32846594"
           d="m -817.15625,200.9375 c -61.5403,0 -111.40625,49.8972 -111.40625,111.4375 0,5.48818 0.38983,10.88053 1.15625,16.15625 8.00855,-42.51627 54.31155,-75.125 110.25,-75.125 55.9254,0 102.2567,32.59202 110.28125,75.09375 0.7634,-5.26562 1.15625,-10.64782 1.15625,-16.125 0,-61.5403 -49.8972,-111.4375 -111.4375,-111.4375 z"
           id="path6483" />
        <path
           inkscape:connector-curvature="0"
           style="fill:#c40707;fill-opacity:1;stroke:#b50000;stroke-width:4.32846594"
           d="m -902.625,383.84375 c 20.44024,24.41921 51.13285,39.9375 85.46875,39.9375 34.3359,0 65.05976,-15.51829 85.5,-39.9375 -22.41243,18.49979 -52.47553,29.8125 -85.5,29.8125 -33.02447,0 -63.05632,-11.31271 -85.46875,-29.8125 z"
           id="path6485" />
        <path
           inkscape:connector-curvature="0"
           style="opacity:0.67880004;fill:#d15b5b;fill-opacity:1;stroke:#b50000;stroke-width:4.32846594"
           d="m -817.15625,180.71875 c -72.69814,0 -131.625,58.95811 -131.625,131.65625 0,72.69814 58.92686,131.625 131.625,131.625 23.39364,0 45.36835,-6.1125 64.40625,-16.8125 -16.24429,6.75733 -34.21906,10.53125 -53.125,10.53125 -72.58564,0 -131.4375,-55.34749 -131.4375,-123.59375 0,-68.24626 58.85186,-123.5625 131.4375,-123.5625 27.21962,0 52.49272,7.76981 73.46875,21.09375 -22.89849,-19.28623 -52.46833,-30.9375 -84.75,-30.9375 z"
           id="path6487" />
      </g>
      <g
         style="stroke:#b50000;stroke-width:4.32846594"
         transform="matrix(1.2905292,-0.03283294,0.11890755,1.5698553,-19055.115,3501.0335)"
         id="g6489">
        <circle
           transform="matrix(1.2895253,0,0,1.2895253,531.33216,9.0409071)"
           id="path6491"
           style="fill:#d00c0c;fill-opacity:1;stroke:#b50000;stroke-width:3.35663533"
           cx="-1045.7142"
           cy="235.21933"
           r="102.85714" />
        <circle
           style="fill:#d50d0d;fill-opacity:1;stroke:#b50000;stroke-width:3.99550724"
           id="path6493"
           transform="matrix(1.0833333,0,0,1.0833333,315.71428,57.541246)"
           cx="-1045.7142"
           cy="235.21933"
           r="102.85714" />
        <path
           inkscape:connector-curvature="0"
           style="fill:#b40c0c;fill-opacity:1;stroke:#b50000;stroke-width:4.32846594"
           d="m -817.15625,200.9375 c -61.5403,0 -111.40625,49.8972 -111.40625,111.4375 0,5.48818 0.38983,10.88053 1.15625,16.15625 8.00855,-42.51627 54.31155,-75.125 110.25,-75.125 55.9254,0 102.2567,32.59202 110.28125,75.09375 0.7634,-5.26562 1.15625,-10.64782 1.15625,-16.125 0,-61.5403 -49.8972,-111.4375 -111.4375,-111.4375 z"
           id="path6495" />
        <path
           inkscape:connector-curvature="0"
           style="fill:#c40707;fill-opacity:1;stroke:#b50000;stroke-width:4.32846594"
           d="m -902.625,383.84375 c 20.44024,24.41921 51.13285,39.9375 85.46875,39.9375 34.3359,0 65.05976,-15.51829 85.5,-39.9375 -22.41243,18.49979 -52.47553,29.8125 -85.5,29.8125 -33.02447,0 -63.05632,-11.31271 -85.46875,-29.8125 z"
           id="path6497" />
        <path
           inkscape:connector-curvature="0"
           style="opacity:0.67880004;fill:#d15b5b;fill-opacity:1;stroke:#b50000;stroke-width:4.32846594"
           d="m -817.15625,180.71875 c -72.69814,0 -131.625,58.95811 -131.625,131.65625 0,72.69814 58.92686,131.625 131.625,131.625 23.39364,0 45.36835,-6.1125 64.40625,-16.8125 -16.24429,6.75733 -34.21906,10.53125 -53.125,10.53125 -72.58564,0 -131.4375,-55.34749 -131.4375,-123.59375 0,-68.24626 58.85186,-123.5625 131.4375,-123.5625 27.21962,0 52.49272,7.76981 73.46875,21.09375 -22.89849,-19.28623 -52.46833,-30.9375 -84.75,-30.9375 z"
           id="path6499" />
      </g>
      <g
         id="g6501"
         transform="matrix(0.96974678,0.26025384,-0.257688,1.1970653,-19819.142,3314.8789)"
         style="stroke:#b50000;stroke-width:4.32846594">
        <circle
           style="fill:#d00c0c;fill-opacity:1;stroke:#b50000;stroke-width:3.35663533"
           id="path6503"
           transform="matrix(1.2895253,0,0,1.2895253,531.33216,9.0409071)"
           cx="-1045.7142"
           cy="235.21933"
           r="102.85714" />
        <circle
           transform="matrix(1.0833333,0,0,1.0833333,315.71428,57.541246)"
           id="path6505"
           style="fill:#d50d0d;fill-opacity:1;stroke:#b50000;stroke-width:3.99550724"
           cx="-1045.7142"
           cy="235.21933"
           r="102.85714" />
        <path
           id="path6507"
           d="m -817.15625,200.9375 c -61.5403,0 -111.40625,49.8972 -111.40625,111.4375 0,5.48818 0.38983,10.88053 1.15625,16.15625 8.00855,-42.51627 54.31155,-75.125 110.25,-75.125 55.9254,0 102.2567,32.59202 110.28125,75.09375 0.7634,-5.26562 1.15625,-10.64782 1.15625,-16.125 0,-61.5403 -49.8972,-111.4375 -111.4375,-111.4375 z"
           style="fill:#b40c0c;fill-opacity:1;stroke:#b50000;stroke-width:4.32846594"
           inkscape:connector-curvature="0" />
        <path
           id="path6509"
           d="m -902.625,383.84375 c 20.44024,24.41921 51.13285,39.9375 85.46875,39.9375 34.3359,0 65.05976,-15.51829 85.5,-39.9375 -22.41243,18.49979 -52.47553,29.8125 -85.5,29.8125 -33.02447,0 -63.05632,-11.31271 -85.46875,-29.8125 z"
           style="fill:#c40707;fill-opacity:1;stroke:#b50000;stroke-width:4.32846594"
           inkscape:connector-curvature="0" />
        <path
           id="path6511"
           d="m -817.15625,180.71875 c -72.69814,0 -131.625,58.95811 -131.625,131.65625 0,72.69814 58.92686,131.625 131.625,131.625 23.39364,0 45.36835,-6.1125 64.40625,-16.8125 -16.24429,6.75733 -34.21906,10.53125 -53.125,10.53125 -72.58564,0 -131.4375,-55.34749 -131.4375,-123.59375 0,-68.24626 58.85186,-123.5625 131.4375,-123.5625 27.21962,0 52.49272,7.76981 73.46875,21.09375 -22.89849,-19.28623 -52.46833,-30.9375 -84.75,-30.9375 z"
           style="opacity:0.67880004;fill:#d15b5b;fill-opacity:1;stroke:#b50000;stroke-width:4.32846594"
           inkscape:connector-curvature="0" />
      </g>
      <g
         style="stroke:#b50000;stroke-width:4.32846594"
         transform="matrix(1.7033618,-1.3627573,1.763999,1.9913587,-17411.749,569.22943)"
         id="g6513">
        <circle
           transform="matrix(1.2895253,0,0,1.2895253,531.33216,9.0409071)"
           id="path6515"
           style="fill:#d00c0c;fill-opacity:1;stroke:#b50000;stroke-width:3.35663533"
           cx="-1045.7142"
           cy="235.21933"
           r="102.85714" />
        <circle
           style="fill:#d50d0d;fill-opacity:1;stroke:#b50000;stroke-width:3.99550724"
           id="path6517"
           transform="matrix(1.0833333,0,0,1.0833333,315.71428,57.541246)"
           cx="-1045.7142"
           cy="235.21933"
           r="102.85714" />
        <path
           inkscape:connector-curvature="0"
           style="fill:#b40c0c;fill-opacity:1;stroke:#b50000;stroke-width:4.32846594"
           d="m -817.15625,200.9375 c -61.5403,0 -111.40625,49.8972 -111.40625,111.4375 0,5.48818 0.38983,10.88053 1.15625,16.15625 8.00855,-42.51627 54.31155,-75.125 110.25,-75.125 55.9254,0 102.2567,32.59202 110.28125,75.09375 0.7634,-5.26562 1.15625,-10.64782 1.15625,-16.125 0,-61.5403 -49.8972,-111.4375 -111.4375,-111.4375 z"
           id="path6519" />
        <path
           inkscape:connector-curvature="0"
           style="fill:#c40707;fill-opacity:1;stroke:#b50000;stroke-width:4.32846594"
           d="m -902.625,383.84375 c 20.44024,24.41921 51.13285,39.9375 85.46875,39.9375 34.3359,0 65.05976,-15.51829 85.5,-39.9375 -22.41243,18.49979 -52.47553,29.8125 -85.5,29.8125 -33.02447,0 -63.05632,-11.31271 -85.46875,-29.8125 z"
           id="path6521" />
        <path
           inkscape:connector-curvature="0"
           style="opacity:0.67880004;fill:#d15b5b;fill-opacity:1;stroke:#b50000;stroke-width:4.32846594"
           d="m -817.15625,180.71875 c -72.69814,0 -131.625,58.95811 -131.625,131.65625 0,72.69814 58.92686,131.625 131.625,131.625 23.39364,0 45.36835,-6.1125 64.40625,-16.8125 -16.24429,6.75733 -34.21906,10.53125 -53.125,10.53125 -72.58564,0 -131.4375,-55.34749 -131.4375,-123.59375 0,-68.24626 58.85186,-123.5625 131.4375,-123.5625 27.21962,0 52.49272,7.76981 73.46875,21.09375 -22.89849,-19.28623 -52.46833,-30.9375 -84.75,-30.9375 z"
           id="path6523" />
      </g>
      <g
         id="g6525"
         transform="matrix(-2.3496492,-1.879813,-2.4332934,2.7469177,-21726.142,-98.967201)"
         style="stroke:#b50000;stroke-width:4.32846594">
        <circle
           style="fill:#d00c0c;fill-opacity:1;stroke:#b50000;stroke-width:3.35663533"
           id="path6527"
           transform="matrix(1.2895253,0,0,1.2895253,531.33216,9.0409071)"
           cx="-1045.7142"
           cy="235.21933"
           r="102.85714" />
        <circle
           transform="matrix(1.0833333,0,0,1.0833333,315.71428,57.541246)"
           id="path6529"
           style="fill:#d50d0d;fill-opacity:1;stroke:#b50000;stroke-width:3.99550724"
           cx="-1045.7142"
           cy="235.21933"
           r="102.85714" />
        <path
           id="path6531"
           d="m -817.15625,200.9375 c -61.5403,0 -111.40625,49.8972 -111.40625,111.4375 0,5.48818 0.38983,10.88053 1.15625,16.15625 8.00855,-42.51627 54.31155,-75.125 110.25,-75.125 55.9254,0 102.2567,32.59202 110.28125,75.09375 0.7634,-5.26562 1.15625,-10.64782 1.15625,-16.125 0,-61.5403 -49.8972,-111.4375 -111.4375,-111.4375 z"
           style="fill:#b40c0c;fill-opacity:1;stroke:#b50000;stroke-width:4.32846594"
           inkscape:connector-curvature="0" />
        <path
           id="path6533"
           d="m -902.625,383.84375 c 20.44024,24.41921 51.13285,39.9375 85.46875,39.9375 34.3359,0 65.05976,-15.51829 85.5,-39.9375 -22.41243,18.49979 -52.47553,29.8125 -85.5,29.8125 -33.02447,0 -63.05632,-11.31271 -85.46875,-29.8125 z"
           style="fill:#c40707;fill-opacity:1;stroke:#b50000;stroke-width:4.32846594"
           inkscape:connector-curvature="0" />
        <path
           id="path6535"
           d="m -817.15625,180.71875 c -72.69814,0 -131.625,58.95811 -131.625,131.65625 0,72.69814 58.92686,131.625 131.625,131.625 23.39364,0 45.36835,-6.1125 64.40625,-16.8125 -16.24429,6.75733 -34.21906,10.53125 -53.125,10.53125 -72.58564,0 -131.4375,-55.34749 -131.4375,-123.59375 0,-68.24626 58.85186,-123.5625 131.4375,-123.5625 27.21962,0 52.49272,7.76981 73.46875,21.09375 -22.89849,-19.28623 -52.46833,-30.9375 -84.75,-30.9375 z"
           style="opacity:0.67880004;fill:#d15b5b;fill-opacity:1;stroke:#b50000;stroke-width:4.32846594"
           inkscape:connector-curvature="0" />
      </g>
      <g
         id="g6537"
         transform="matrix(1.0546981,-0.84380046,1.0922438,1.2330218,-17877.173,1820.6622)"
         style="stroke:#b50000;stroke-width:4.32846594">
        <circle
           style="fill:#d00c0c;fill-opacity:1;stroke:#b50000;stroke-width:3.35663533"
           id="path6539"
           transform="matrix(1.2895253,0,0,1.2895253,531.33216,9.0409071)"
           cx="-1045.7142"
           cy="235.21933"
           r="102.85714" />
        <circle
           transform="matrix(1.0833333,0,0,1.0833333,315.71428,57.541246)"
           id="path6541"
           style="fill:#d50d0d;fill-opacity:1;stroke:#b50000;stroke-width:3.99550724"
           cx="-1045.7142"
           cy="235.21933"
           r="102.85714" />
        <path
           id="path6543"
           d="m -817.15625,200.9375 c -61.5403,0 -111.40625,49.8972 -111.40625,111.4375 0,5.48818 0.38983,10.88053 1.15625,16.15625 8.00855,-42.51627 54.31155,-75.125 110.25,-75.125 55.9254,0 102.2567,32.59202 110.28125,75.09375 0.7634,-5.26562 1.15625,-10.64782 1.15625,-16.125 0,-61.5403 -49.8972,-111.4375 -111.4375,-111.4375 z"
           style="fill:#b40c0c;fill-opacity:1;stroke:#b50000;stroke-width:4.32846594"
           inkscape:connector-curvature="0" />
        <path
           id="path6545"
           d="m -902.625,383.84375 c 20.44024,24.41921 51.13285,39.9375 85.46875,39.9375 34.3359,0 65.05976,-15.51829 85.5,-39.9375 -22.41243,18.49979 -52.47553,29.8125 -85.5,29.8125 -33.02447,0 -63.05632,-11.31271 -85.46875,-29.8125 z"
           style="fill:#c40707;fill-opacity:1;stroke:#b50000;stroke-width:4.32846594"
           inkscape:connector-curvature="0" />
        <path
           id="path6547"
           d="m -817.15625,180.71875 c -72.69814,0 -131.625,58.95811 -131.625,131.65625 0,72.69814 58.92686,131.625 131.625,131.625 23.39364,0 45.36835,-6.1125 64.40625,-16.8125 -16.24429,6.75733 -34.21906,10.53125 -53.125,10.53125 -72.58564,0 -131.4375,-55.34749 -131.4375,-123.59375 0,-68.24626 58.85186,-123.5625 131.4375,-123.5625 27.21962,0 52.49272,7.76981 73.46875,21.09375 -22.89849,-19.28623 -52.46833,-30.9375 -84.75,-30.9375 z"
           style="opacity:0.67880004;fill:#d15b5b;fill-opacity:1;stroke:#b50000;stroke-width:4.32846594"
           inkscape:connector-curvature="0" />
      </g>
      <g
         style="stroke:#b50000;stroke-width:4.32846594"
         transform="matrix(-1.0546981,-0.84380046,-1.0922438,1.2330218,-20554.462,639.67179)"
         id="g6549">
        <circle
           transform="matrix(1.2895253,0,0,1.2895253,531.33216,9.0409071)"
           id="path6551"
           style="fill:#d00c0c;fill-opacity:1;stroke:#b50000;stroke-width:3.35663533"
           cx="-1045.7142"
           cy="235.21933"
           r="102.85714" />
        <circle
           style="fill:#d50d0d;fill-opacity:1;stroke:#b50000;stroke-width:3.99550724"
           id="path6553"
           transform="matrix(1.0833333,0,0,1.0833333,315.71428,57.541246)"
           cx="-1045.7142"
           cy="235.21933"
           r="102.85714" />
        <path
           inkscape:connector-curvature="0"
           style="fill:#b40c0c;fill-opacity:1;stroke:#b50000;stroke-width:4.32846594"
           d="m -817.15625,200.9375 c -61.5403,0 -111.40625,49.8972 -111.40625,111.4375 0,5.48818 0.38983,10.88053 1.15625,16.15625 8.00855,-42.51627 54.31155,-75.125 110.25,-75.125 55.9254,0 102.2567,32.59202 110.28125,75.09375 0.7634,-5.26562 1.15625,-10.64782 1.15625,-16.125 0,-61.5403 -49.8972,-111.4375 -111.4375,-111.4375 z"
           id="path6555" />
        <path
           inkscape:connector-curvature="0"
           style="fill:#c40707;fill-opacity:1;stroke:#b50000;stroke-width:4.32846594"
           d="m -902.625,383.84375 c 20.44024,24.41921 51.13285,39.9375 85.46875,39.9375 34.3359,0 65.05976,-15.51829 85.5,-39.9375 -22.41243,18.49979 -52.47553,29.8125 -85.5,29.8125 -33.02447,0 -63.05632,-11.31271 -85.46875,-29.8125 z"
           id="path6557" />
        <path
           inkscape:connector-curvature="0"
           style="opacity:0.67880004;fill:#d15b5b;fill-opacity:1;stroke:#b50000;stroke-width:4.32846594"
           d="m -817.15625,180.71875 c -72.69814,0 -131.625,58.95811 -131.625,131.65625 0,72.69814 58.92686,131.625 131.625,131.625 23.39364,0 45.36835,-6.1125 64.40625,-16.8125 -16.24429,6.75733 -34.21906,10.53125 -53.125,10.53125 -72.58564,0 -131.4375,-55.34749 -131.4375,-123.59375 0,-68.24626 58.85186,-123.5625 131.4375,-123.5625 27.21962,0 52.49272,7.76981 73.46875,21.09375 -22.89849,-19.28623 -52.46833,-30.9375 -84.75,-30.9375 z"
           id="path6559" />
      </g>
      <g
         style="stroke:#b50000;stroke-width:4.32846594"
         transform="matrix(-1.6736331,0.27666676,0.08015919,1.8495364,-22636.465,2834.0756)"
         id="g6561">
        <circle
           transform="matrix(1.2895253,0,0,1.2895253,531.33216,9.0409071)"
           id="path6563"
           style="fill:#d00c0c;fill-opacity:1;stroke:#b50000;stroke-width:3.35663533"
           cx="-1045.7142"
           cy="235.21933"
           r="102.85714" />
        <circle
           style="fill:#d50d0d;fill-opacity:1;stroke:#b50000;stroke-width:3.99550724"
           id="path6565"
           transform="matrix(1.0833333,0,0,1.0833333,315.71428,57.541246)"
           cx="-1045.7142"
           cy="235.21933"
           r="102.85714" />
        <path
           inkscape:connector-curvature="0"
           style="fill:#b40c0c;fill-opacity:1;stroke:#b50000;stroke-width:4.32846594"
           d="m -817.15625,200.9375 c -61.5403,0 -111.40625,49.8972 -111.40625,111.4375 0,5.48818 0.38983,10.88053 1.15625,16.15625 8.00855,-42.51627 54.31155,-75.125 110.25,-75.125 55.9254,0 102.2567,32.59202 110.28125,75.09375 0.7634,-5.26562 1.15625,-10.64782 1.15625,-16.125 0,-61.5403 -49.8972,-111.4375 -111.4375,-111.4375 z"
           id="path6567" />
        <path
           inkscape:connector-curvature="0"
           style="fill:#c40707;fill-opacity:1;stroke:#b50000;stroke-width:4.32846594"
           d="m -902.625,383.84375 c 20.44024,24.41921 51.13285,39.9375 85.46875,39.9375 34.3359,0 65.05976,-15.51829 85.5,-39.9375 -22.41243,18.49979 -52.47553,29.8125 -85.5,29.8125 -33.02447,0 -63.05632,-11.31271 -85.46875,-29.8125 z"
           id="path6569" />
        <path
           inkscape:connector-curvature="0"
           style="opacity:0.67880004;fill:#d15b5b;fill-opacity:1;stroke:#b50000;stroke-width:4.32846594"
           d="m -817.15625,180.71875 c -72.69814,0 -131.625,58.95811 -131.625,131.65625 0,72.69814 58.92686,131.625 131.625,131.625 23.39364,0 45.36835,-6.1125 64.40625,-16.8125 -16.24429,6.75733 -34.21906,10.53125 -53.125,10.53125 -72.58564,0 -131.4375,-55.34749 -131.4375,-123.59375 0,-68.24626 58.85186,-123.5625 131.4375,-123.5625 27.21962,0 52.49272,7.76981 73.46875,21.09375 -22.89849,-19.28623 -52.46833,-30.9375 -84.75,-30.9375 z"
           id="path6571" />
      </g>
      <g
         style="stroke:#b50000;stroke-width:4.32846594"
         transform="matrix(1.5015048,-1.1903169,1.5549562,1.7393765,-17395.235,3024.9852)"
         id="g6573">
        <circle
           transform="matrix(1.2895253,0,0,1.2895253,531.33216,9.0409071)"
           id="path6575"
           style="fill:#d00c0c;fill-opacity:1;stroke:#b50000;stroke-width:3.35663533"
           cx="-1045.7142"
           cy="235.21933"
           r="102.85714" />
        <circle
           style="fill:#d50d0d;fill-opacity:1;stroke:#b50000;stroke-width:3.99550724"
           id="path6577"
           transform="matrix(1.0833333,0,0,1.0833333,315.71428,57.541246)"
           cx="-1045.7142"
           cy="235.21933"
           r="102.85714" />
        <path
           inkscape:connector-curvature="0"
           style="fill:#b40c0c;fill-opacity:1;stroke:#b50000;stroke-width:4.32846594"
           d="m -817.15625,200.9375 c -61.5403,0 -111.40625,49.8972 -111.40625,111.4375 0,5.48818 0.38983,10.88053 1.15625,16.15625 8.00855,-42.51627 54.31155,-75.125 110.25,-75.125 55.9254,0 102.2567,32.59202 110.28125,75.09375 0.7634,-5.26562 1.15625,-10.64782 1.15625,-16.125 0,-61.5403 -49.8972,-111.4375 -111.4375,-111.4375 z"
           id="path6579" />
        <path
           inkscape:connector-curvature="0"
           style="fill:#c40707;fill-opacity:1;stroke:#b50000;stroke-width:4.32846594"
           d="m -902.625,383.84375 c 20.44024,24.41921 51.13285,39.9375 85.46875,39.9375 34.3359,0 65.05976,-15.51829 85.5,-39.9375 -22.41243,18.49979 -52.47553,29.8125 -85.5,29.8125 -33.02447,0 -63.05632,-11.31271 -85.46875,-29.8125 z"
           id="path6581" />
        <path
           inkscape:connector-curvature="0"
           style="opacity:0.67880004;fill:#d15b5b;fill-opacity:1;stroke:#b50000;stroke-width:4.32846594"
           d="m -817.15625,180.71875 c -72.69814,0 -131.625,58.95811 -131.625,131.65625 0,72.69814 58.92686,131.625 131.625,131.625 23.39364,0 45.36835,-6.1125 64.40625,-16.8125 -16.24429,6.75733 -34.21906,10.53125 -53.125,10.53125 -72.58564,0 -131.4375,-55.34749 -131.4375,-123.59375 0,-68.24626 58.85186,-123.5625 131.4375,-123.5625 27.21962,0 52.49272,7.76981 73.46875,21.09375 -22.89849,-19.28623 -52.46833,-30.9375 -84.75,-30.9375 z"
           id="path6583" />
      </g>
      <path
         inkscape:connector-curvature="0"
         id="path6447-2"
         d="m -17919.118,1877.928 a 2164.8604,2164.8604 0 0 1 135.059,1000.2714 2164.8604,2164.8604 0 0 1 -2372.295,1935.3165 2164.8604,2164.8604 0 0 1 -1229.142,-547.3405 2164.8604,2164.8604 0 0 0 1800.255,1372.0231 2164.8604,2164.8604 0 0 0 2372.296,-1935.3163 2164.8604,2164.8604 0 0 0 -706.173,-1824.9542 z"
         style="opacity:0.41499999;fill:#4a0302;fill-opacity:0.98823529;stroke:none;stroke-width:3.96702123" />
      <g
         style="stroke:#b50000;stroke-width:4.32846594"
         transform="matrix(-1.4049632,-0.12049358,-0.03422017,2.1218744,-18763.949,2650.303)"
         id="g6590">
        <circle
           transform="matrix(1.2895253,0,0,1.2895253,531.33216,9.0409071)"
           id="path6592"
           style="fill:#d00c0c;fill-opacity:1;stroke:#b50000;stroke-width:3.35663533"
           cx="-1045.7142"
           cy="235.21933"
           r="102.85714" />
        <circle
           style="fill:#d50d0d;fill-opacity:1;stroke:#b50000;stroke-width:3.99550724"
           id="path6594"
           transform="matrix(1.0833333,0,0,1.0833333,315.71428,57.541246)"
           cx="-1045.7142"
           cy="235.21933"
           r="102.85714" />
        <path
           inkscape:connector-curvature="0"
           style="fill:#b40c0c;fill-opacity:1;stroke:#b50000;stroke-width:4.32846594"
           d="m -817.15625,200.9375 c -61.5403,0 -111.40625,49.8972 -111.40625,111.4375 0,5.48818 0.38983,10.88053 1.15625,16.15625 8.00855,-42.51627 54.31155,-75.125 110.25,-75.125 55.9254,0 102.2567,32.59202 110.28125,75.09375 0.7634,-5.26562 1.15625,-10.64782 1.15625,-16.125 0,-61.5403 -49.8972,-111.4375 -111.4375,-111.4375 z"
           id="path6596" />
        <path
           inkscape:connector-curvature="0"
           style="fill:#c40707;fill-opacity:1;stroke:#b50000;stroke-width:4.32846594"
           d="m -902.625,383.84375 c 20.44024,24.41921 51.13285,39.9375 85.46875,39.9375 34.3359,0 65.05976,-15.51829 85.5,-39.9375 -22.41243,18.49979 -52.47553,29.8125 -85.5,29.8125 -33.02447,0 -63.05632,-11.31271 -85.46875,-29.8125 z"
           id="path6598" />
        <path
           inkscape:connector-curvature="0"
           style="opacity:0.67880004;fill:#d15b5b;fill-opacity:1;stroke:#b50000;stroke-width:4.32846594"
           d="m -817.15625,180.71875 c -72.69814,0 -131.625,58.95811 -131.625,131.65625 0,72.69814 58.92686,131.625 131.625,131.625 23.39364,0 45.36835,-6.1125 64.40625,-16.8125 -16.24429,6.75733 -34.21906,10.53125 -53.125,10.53125 -72.58564,0 -131.4375,-55.34749 -131.4375,-123.59375 0,-68.24626 58.85186,-123.5625 131.4375,-123.5625 27.21962,0 52.49272,7.76981 73.46875,21.09375 -22.89849,-19.28623 -52.46833,-30.9375 -84.75,-30.9375 z"
           id="path6600" />
      </g>
      <circle
         id="path6447-2-1-2-8"
         style="opacity:0.32900002;fill:#ffffff;fill-opacity:0.98823529;stroke:none;stroke-width:1.56388021;filter:url(#filter15967)"
         cx="-20322.855"
         cy="2483.7908"
         r="853.43182" />
    </g>
  </g>
</svg>
